<svg xmlns="http://www.w3.org/2000/svg" xmlns:xlink="http://www.w3.org/1999/xlink" width="200" zoomAndPan="magnify" viewBox="0 0 150 149.999998" height="200" preserveAspectRatio="xMidYMid meet" version="1.0"><defs><g/><clipPath id="afe737d4b0"><path d="M 126 30 L 148 30 L 148 50 L 126 50 Z M 126 30 " clip-rule="nonzero"/></clipPath><clipPath id="6182e2a2c3"><path d="M 127.519531 28.066406 L 168.863281 53.898438 L 139.054688 101.601562 L 97.714844 75.769531 Z M 127.519531 28.066406 " clip-rule="nonzero"/></clipPath><clipPath id="aedee16674"><path d="M 127.519531 28.066406 L 168.863281 53.898438 L 139.054688 101.601562 L 97.714844 75.769531 Z M 127.519531 28.066406 " clip-rule="nonzero"/></clipPath><clipPath id="22c50430d6"><path d="M 104 57 L 117 57 L 117 78 L 104 78 Z M 104 57 " clip-rule="nonzero"/></clipPath><clipPath id="8e6068b63e"><path d="M 127.519531 28.066406 L 168.863281 53.898438 L 139.054688 101.601562 L 97.714844 75.769531 Z M 127.519531 28.066406 " clip-rule="nonzero"/></clipPath><clipPath id="9a01f31ce3"><path d="M 127.519531 28.066406 L 168.863281 53.898438 L 139.054688 101.601562 L 97.714844 75.769531 Z M 127.519531 28.066406 " clip-rule="nonzero"/></clipPath><clipPath id="ca4e49e685"><path d="M 113 39 L 142 39 L 142 93 L 113 93 Z M 113 39 " clip-rule="nonzero"/></clipPath><clipPath id="b0c580856a"><path d="M 127.519531 28.066406 L 168.863281 53.898438 L 139.054688 101.601562 L 97.714844 75.769531 Z M 127.519531 28.066406 " clip-rule="nonzero"/></clipPath><clipPath id="16a85482c0"><path d="M 127.519531 28.066406 L 168.863281 53.898438 L 139.054688 101.601562 L 97.714844 75.769531 Z M 127.519531 28.066406 " clip-rule="nonzero"/></clipPath><clipPath id="845db3abe8"><path d="M 127 85 L 144 85 L 144 99 L 127 99 Z M 127 85 " clip-rule="nonzero"/></clipPath><clipPath id="a7f41b97e5"><path d="M 127.519531 28.066406 L 168.863281 53.898438 L 139.054688 101.601562 L 97.714844 75.769531 Z M 127.519531 28.066406 " clip-rule="nonzero"/></clipPath><clipPath id="d8f40a6d78"><path d="M 127.519531 28.066406 L 168.863281 53.898438 L 139.054688 101.601562 L 97.714844 75.769531 Z M 127.519531 28.066406 " clip-rule="nonzero"/></clipPath><clipPath id="14fd502c9e"><path d="M 73 81 L 95 81 L 95 100 L 73 100 Z M 73 81 " clip-rule="nonzero"/></clipPath><clipPath id="ab5b8a930b"><path d="M 93.121094 101.859375 L 52.519531 76.253906 L 82.128906 29.308594 L 122.726562 54.914062 Z M 93.121094 101.859375 " clip-rule="nonzero"/></clipPath><clipPath id="0cd5e4fa4a"><path d="M 93.121094 101.859375 L 52.519531 76.253906 L 82.128906 29.308594 L 122.726562 54.914062 Z M 93.121094 101.859375 " clip-rule="nonzero"/></clipPath><clipPath id="db3821752a"><path d="M 103 53 L 117 53 L 117 74 L 103 74 Z M 103 53 " clip-rule="nonzero"/></clipPath><clipPath id="6bf7ffb9d4"><path d="M 93.121094 101.859375 L 52.519531 76.253906 L 82.128906 29.308594 L 122.726562 54.914062 Z M 93.121094 101.859375 " clip-rule="nonzero"/></clipPath><clipPath id="6cace911da"><path d="M 93.121094 101.859375 L 52.519531 76.253906 L 82.128906 29.308594 L 122.726562 54.914062 Z M 93.121094 101.859375 " clip-rule="nonzero"/></clipPath><clipPath id="daa7ded6c8"><path d="M 79 38 L 107 38 L 107 91 L 79 91 Z M 79 38 " clip-rule="nonzero"/></clipPath><clipPath id="466df78575"><path d="M 93.121094 101.859375 L 52.519531 76.253906 L 82.128906 29.308594 L 122.726562 54.914062 Z M 93.121094 101.859375 " clip-rule="nonzero"/></clipPath><clipPath id="25d881cef2"><path d="M 93.121094 101.859375 L 52.519531 76.253906 L 82.128906 29.308594 L 122.726562 54.914062 Z M 93.121094 101.859375 " clip-rule="nonzero"/></clipPath><clipPath id="555a7ab593"><path d="M 77 31 L 94 31 L 94 46 L 77 46 Z M 77 31 " clip-rule="nonzero"/></clipPath><clipPath id="4589edc543"><path d="M 93.121094 101.859375 L 52.519531 76.253906 L 82.128906 29.308594 L 122.726562 54.914062 Z M 93.121094 101.859375 " clip-rule="nonzero"/></clipPath><clipPath id="cc01aa7060"><path d="M 93.121094 101.859375 L 52.519531 76.253906 L 82.128906 29.308594 L 122.726562 54.914062 Z M 93.121094 101.859375 " clip-rule="nonzero"/></clipPath></defs><g clip-path="url(#afe737d4b0)"><g clip-path="url(#6182e2a2c3)"><g clip-path="url(#aedee16674)"><path fill="#276143" d="M 142.671875 49.132812 C 145.015625 45.757812 146.8125 43.179688 146.859375 43.105469 C 147.242188 42.558594 147.113281 41.808594 146.574219 41.417969 L 131.726562 30.699219 C 131.460938 30.496094 131.105469 30.425781 130.769531 30.492188 C 130.433594 30.5625 130.144531 30.765625 129.96875 31.058594 C 128.871094 32.878906 127.609375 34.9375 126.277344 37.074219 C 130.476562 40.210938 137.125 45.097656 142.671875 49.132812 Z M 142.671875 49.132812 " fill-opacity="1" fill-rule="nonzero"/></g></g></g><g clip-path="url(#22c50430d6)"><g clip-path="url(#8e6068b63e)"><g clip-path="url(#9a01f31ce3)"><path fill="#276143" d="M 112.960938 75.820312 C 117.085938 69.21875 119.324219 64.429688 113.136719 58.230469 L 111.804688 57.21875 C 109.5 58.792969 107.105469 60.753906 104.847656 64.367188 C 102.664062 67.863281 105.601562 70.996094 109.988281 75.042969 C 110.742188 75.738281 111.460938 76.414062 112.164062 77.085938 C 112.460938 76.625 112.746094 76.179688 112.960938 75.820312 Z M 112.960938 75.820312 " fill-opacity="1" fill-rule="nonzero"/></g></g></g><g clip-path="url(#ca4e49e685)"><g clip-path="url(#b0c580856a)"><g clip-path="url(#16a85482c0)"><path fill="#276143" d="M 126.839844 91.285156 C 131.5 83.824219 139.332031 82.84375 139.660156 82.804688 C 139.761719 82.796875 140.054688 82.773438 140.449219 82.753906 C 139.300781 81.285156 137.554688 79.355469 135.714844 77.324219 C 134.082031 75.527344 132.398438 73.664062 131.054688 72.042969 C 129.105469 69.683594 130.257812 67.382812 131.605469 65.226562 C 132.316406 64.089844 137.21875 56.996094 141.277344 51.140625 C 136.695312 47.804688 129.601562 42.613281 124.972656 39.152344 C 120.730469 45.886719 116.085938 52.902344 113.726562 55.609375 L 114.675781 56.328125 C 114.71875 56.363281 114.761719 56.398438 114.800781 56.4375 C 122.296875 63.894531 119.339844 70.207031 115.035156 77.097656 C 114.945312 77.25 114.496094 77.976562 113.941406 78.808594 C 119.164062 83.953125 122.710938 88.140625 124.796875 90.605469 L 125.566406 91.511719 C 125.785156 91.765625 126.007812 91.996094 126.230469 92.238281 C 126.578125 91.6875 126.839844 91.285156 126.839844 91.285156 Z M 126.839844 91.285156 " fill-opacity="1" fill-rule="nonzero"/></g></g></g><g clip-path="url(#845db3abe8)"><g clip-path="url(#a7f41b97e5)"><g clip-path="url(#d8f40a6d78)"><path fill="#276143" d="M 142.015625 85.199219 C 141.238281 85.164062 140.464844 85.183594 139.90625 85.234375 C 139.867188 85.238281 132.925781 86.144531 128.894531 92.59375 C 128.886719 92.609375 128.460938 93.261719 127.976562 94.035156 C 129.242188 95.234375 130.523438 96.265625 131.816406 97.074219 C 134.835938 98.960938 140.03125 100.015625 141.636719 97.445312 C 144.195312 93.355469 143.738281 88.679688 142.015625 85.199219 Z M 142.015625 85.199219 " fill-opacity="1" fill-rule="nonzero"/></g></g></g><g clip-path="url(#14fd502c9e)"><g clip-path="url(#ab5b8a930b)"><g clip-path="url(#0cd5e4fa4a)"><path fill="#276143" d="M 78.300781 81.035156 C 75.972656 84.355469 74.191406 86.894531 74.140625 86.964844 C 73.761719 87.503906 73.882812 88.246094 74.414062 88.628906 L 88.988281 99.25 C 89.246094 99.449219 89.597656 99.519531 89.925781 99.453125 C 90.257812 99.386719 90.542969 99.183594 90.71875 98.894531 C 91.8125 97.105469 93.066406 95.082031 94.386719 92.976562 C 90.269531 89.871094 83.742188 85.035156 78.300781 81.035156 Z M 78.300781 81.035156 " fill-opacity="1" fill-rule="nonzero"/></g></g></g><g clip-path="url(#db3821752a)"><g clip-path="url(#6bf7ffb9d4)"><g clip-path="url(#6cace911da)"><path fill="#276143" d="M 107.703125 54.816406 C 103.605469 61.3125 101.375 66.027344 107.441406 72.160156 L 108.75 73.160156 C 111.027344 71.617188 113.394531 69.6875 115.636719 66.136719 C 117.808594 62.691406 114.929688 59.59375 110.625 55.59375 C 109.886719 54.90625 109.183594 54.234375 108.496094 53.570312 C 108.199219 54.023438 107.917969 54.464844 107.703125 54.816406 Z M 107.703125 54.816406 " fill-opacity="1" fill-rule="nonzero"/></g></g></g><g clip-path="url(#daa7ded6c8)"><g clip-path="url(#466df78575)"><g clip-path="url(#25d881cef2)"><path fill="#276143" d="M 94.113281 39.519531 C 89.480469 46.863281 81.761719 47.808594 81.4375 47.84375 C 81.335938 47.851562 81.046875 47.875 80.660156 47.890625 C 81.785156 49.34375 83.496094 51.253906 85.296875 53.261719 C 86.894531 55.039062 88.542969 56.878906 89.859375 58.484375 C 91.769531 60.8125 90.621094 63.082031 89.28125 65.203125 C 88.578125 66.320312 83.710938 73.300781 79.679688 79.058594 C 84.179688 82.363281 91.140625 87.507812 95.683594 90.933594 C 99.894531 84.308594 104.507812 77.402344 106.847656 74.742188 L 105.914062 74.027344 C 105.871094 73.996094 105.828125 73.960938 105.792969 73.921875 C 98.445312 66.542969 101.390625 60.332031 105.667969 53.546875 C 105.757812 53.402344 106.203125 52.683594 106.753906 51.863281 C 101.632812 46.773438 98.164062 42.636719 96.121094 40.199219 L 95.367188 39.304688 C 95.152344 39.050781 94.933594 38.824219 94.71875 38.582031 C 94.371094 39.125 94.113281 39.519531 94.113281 39.519531 Z M 94.113281 39.519531 " fill-opacity="1" fill-rule="nonzero"/></g></g></g><g clip-path="url(#555a7ab593)"><g clip-path="url(#4589edc543)"><g clip-path="url(#cc01aa7060)"><path fill="#276143" d="M 79.132812 45.472656 C 79.894531 45.515625 80.65625 45.496094 81.207031 45.445312 C 81.246094 45.441406 88.089844 44.574219 92.09375 38.226562 C 92.101562 38.210938 92.523438 37.566406 93.003906 36.808594 C 91.765625 35.621094 90.507812 34.597656 89.238281 33.796875 C 86.273438 31.929688 81.160156 30.875 79.566406 33.398438 C 77.027344 37.429688 77.449219 42.039062 79.132812 45.472656 Z M 79.132812 45.472656 " fill-opacity="1" fill-rule="nonzero"/></g></g></g><g fill="#276143" fill-opacity="0.4"><g transform="translate(4.641705, 69.612703)"><g><path d="M 15.203125 -11.8125 L 5.53125 -11.8125 L 5.53125 -7.984375 L 14.140625 -7.984375 C 15.359375 -7.984375 16.191406 -7.757812 16.640625 -7.3125 C 17.085938 -6.863281 17.3125 -6.015625 17.3125 -4.765625 L 17.3125 -3.234375 C 17.3125 -1.972656 17.09375 -1.117188 16.65625 -0.671875 C 16.21875 -0.222656 15.378906 0 14.140625 0 L 6.171875 0 C 4.929688 0 4.085938 -0.222656 3.640625 -0.671875 C 3.191406 -1.128906 2.96875 -1.984375 2.96875 -3.234375 L 2.96875 -3.609375 L 5.078125 -4.09375 L 5.078125 -1.90625 L 15.265625 -1.90625 L 15.265625 -6.015625 L 6.671875 -6.015625 C 5.429688 -6.015625 4.585938 -6.238281 4.140625 -6.6875 C 3.703125 -7.144531 3.484375 -8 3.484375 -9.25 L 3.484375 -10.4375 C 3.484375 -11.6875 3.703125 -12.535156 4.140625 -12.984375 C 4.585938 -13.441406 5.429688 -13.671875 6.671875 -13.671875 L 13.953125 -13.671875 C 15.171875 -13.671875 16.007812 -13.445312 16.46875 -13 C 16.925781 -12.5625 17.15625 -11.785156 17.15625 -10.671875 L 17.15625 -10.390625 L 15.203125 -9.828125 Z M 15.203125 -11.8125 "/></g></g></g><g fill="#276143" fill-opacity="0.4"><g transform="translate(25.324874, 69.612703)"><g><path d="M 5.640625 -1.90625 L 16.953125 -1.90625 L 16.953125 -11.8125 L 5.640625 -11.8125 Z M 3.359375 -10.4375 C 3.359375 -11.675781 3.578125 -12.523438 4.015625 -12.984375 C 4.460938 -13.441406 5.3125 -13.671875 6.5625 -13.671875 L 16.015625 -13.671875 C 17.253906 -13.671875 18.09375 -13.441406 18.53125 -12.984375 C 18.976562 -12.535156 19.203125 -11.6875 19.203125 -10.4375 L 19.203125 -3.234375 C 19.203125 -1.972656 18.976562 -1.117188 18.53125 -0.671875 C 18.09375 -0.222656 17.253906 0 16.015625 0 L 6.5625 0 C 5.3125 0 4.460938 -0.226562 4.015625 -0.6875 C 3.578125 -1.144531 3.359375 -1.992188 3.359375 -3.234375 Z M 3.359375 -10.4375 "/></g></g></g><g fill="#276143" fill-opacity="0.4"><g transform="translate(47.922433, 69.612703)"><g><path d="M 15.125 -11.8125 L 5.640625 -11.8125 L 5.640625 -1.90625 L 15.125 -1.90625 L 15.125 -5.328125 L 17.40625 -4.84375 L 17.40625 -3.234375 C 17.40625 -1.972656 17.1875 -1.117188 16.75 -0.671875 C 16.3125 -0.222656 15.46875 0 14.21875 0 L 6.5625 0 C 5.320312 0 4.476562 -0.222656 4.03125 -0.671875 C 3.582031 -1.128906 3.359375 -1.984375 3.359375 -3.234375 L 3.359375 -10.4375 C 3.359375 -11.6875 3.582031 -12.535156 4.03125 -12.984375 C 4.476562 -13.441406 5.320312 -13.671875 6.5625 -13.671875 L 14.21875 -13.671875 C 15.46875 -13.671875 16.3125 -13.445312 16.75 -13 C 17.1875 -12.550781 17.40625 -11.695312 17.40625 -10.4375 L 17.40625 -9.140625 L 15.125 -8.71875 Z M 15.125 -11.8125 "/></g></g></g><g fill="#276143" fill-opacity="0.4"><g transform="translate(67.790688, 69.612703)"><g><path d="M 3.546875 0 L 3.546875 -13.671875 L 5.828125 -13.671875 L 5.828125 -7.8125 L 14.359375 -13.671875 L 17.6875 -13.671875 L 7.78125 -7.125 L 18.78125 0 L 14.96875 0 L 5.828125 -6.140625 L 5.828125 0 Z M 3.546875 0 "/></g></g></g><g fill="#276143" fill-opacity="1"><g transform="translate(3.470707, 68.441702)"><g><path d="M 15.203125 -11.8125 L 5.53125 -11.8125 L 5.53125 -7.984375 L 14.140625 -7.984375 C 15.359375 -7.984375 16.191406 -7.757812 16.640625 -7.3125 C 17.085938 -6.863281 17.3125 -6.015625 17.3125 -4.765625 L 17.3125 -3.234375 C 17.3125 -1.972656 17.09375 -1.117188 16.65625 -0.671875 C 16.21875 -0.222656 15.378906 0 14.140625 0 L 6.171875 0 C 4.929688 0 4.085938 -0.222656 3.640625 -0.671875 C 3.191406 -1.128906 2.96875 -1.984375 2.96875 -3.234375 L 2.96875 -3.609375 L 5.078125 -4.09375 L 5.078125 -1.90625 L 15.265625 -1.90625 L 15.265625 -6.015625 L 6.671875 -6.015625 C 5.429688 -6.015625 4.585938 -6.238281 4.140625 -6.6875 C 3.703125 -7.144531 3.484375 -8 3.484375 -9.25 L 3.484375 -10.4375 C 3.484375 -11.6875 3.703125 -12.535156 4.140625 -12.984375 C 4.585938 -13.441406 5.429688 -13.671875 6.671875 -13.671875 L 13.953125 -13.671875 C 15.171875 -13.671875 16.007812 -13.445312 16.46875 -13 C 16.925781 -12.5625 17.15625 -11.785156 17.15625 -10.671875 L 17.15625 -10.390625 L 15.203125 -9.828125 Z M 15.203125 -11.8125 "/></g></g></g><g fill="#276143" fill-opacity="1"><g transform="translate(24.153876, 68.441702)"><g><path d="M 5.640625 -1.90625 L 16.953125 -1.90625 L 16.953125 -11.8125 L 5.640625 -11.8125 Z M 3.359375 -10.4375 C 3.359375 -11.675781 3.578125 -12.523438 4.015625 -12.984375 C 4.460938 -13.441406 5.3125 -13.671875 6.5625 -13.671875 L 16.015625 -13.671875 C 17.253906 -13.671875 18.09375 -13.441406 18.53125 -12.984375 C 18.976562 -12.535156 19.203125 -11.6875 19.203125 -10.4375 L 19.203125 -3.234375 C 19.203125 -1.972656 18.976562 -1.117188 18.53125 -0.671875 C 18.09375 -0.222656 17.253906 0 16.015625 0 L 6.5625 0 C 5.3125 0 4.460938 -0.226562 4.015625 -0.6875 C 3.578125 -1.144531 3.359375 -1.992188 3.359375 -3.234375 Z M 3.359375 -10.4375 "/></g></g></g><g fill="#276143" fill-opacity="1"><g transform="translate(46.751435, 68.441702)"><g><path d="M 15.125 -11.8125 L 5.640625 -11.8125 L 5.640625 -1.90625 L 15.125 -1.90625 L 15.125 -5.328125 L 17.40625 -4.84375 L 17.40625 -3.234375 C 17.40625 -1.972656 17.1875 -1.117188 16.75 -0.671875 C 16.3125 -0.222656 15.46875 0 14.21875 0 L 6.5625 0 C 5.320312 0 4.476562 -0.222656 4.03125 -0.671875 C 3.582031 -1.128906 3.359375 -1.984375 3.359375 -3.234375 L 3.359375 -10.4375 C 3.359375 -11.6875 3.582031 -12.535156 4.03125 -12.984375 C 4.476562 -13.441406 5.320312 -13.671875 6.5625 -13.671875 L 14.21875 -13.671875 C 15.46875 -13.671875 16.3125 -13.445312 16.75 -13 C 17.1875 -12.550781 17.40625 -11.695312 17.40625 -10.4375 L 17.40625 -9.140625 L 15.125 -8.71875 Z M 15.125 -11.8125 "/></g></g></g><g fill="#276143" fill-opacity="1"><g transform="translate(66.61969, 68.441702)"><g><path d="M 3.546875 0 L 3.546875 -13.671875 L 5.828125 -13.671875 L 5.828125 -7.8125 L 14.359375 -13.671875 L 17.6875 -13.671875 L 7.78125 -7.125 L 18.78125 0 L 14.96875 0 L 5.828125 -6.140625 L 5.828125 0 Z M 3.546875 0 "/></g></g></g></svg>